<svg id="Group_96" data-name="Group 96" xmlns="http://www.w3.org/2000/svg" width="34.132" height="36.2" viewBox="0 0 34.132 36.2">
  <path id="Path_41" data-name="Path 41" d="M49.863,7.987,33.33.052a.536.536,0,0,0-.464,0L16.333,7.987a.53.53,0,0,0-.3.478v19.27a.53.53,0,0,0,.3.478l16.533,7.935a.536.536,0,0,0,.464,0l16.533-7.935a.53.53,0,0,0,.3-.478V8.465A.53.53,0,0,0,49.863,7.987ZM33.1,1.119,48.4,8.464l-4.437,2.129a.529.529,0,0,0-.09-.057l-15.2-7.3ZM27.47,3.841l15.284,7.335-3.13,1.5L24.346,5.346Zm15.641,8.341v5.553l-2.924,1.4V13.585ZM49.1,27.4,33.631,34.824V16.732l3.689-1.771a.529.529,0,0,0,.248-.708.535.535,0,0,0-.712-.247L33.1,15.81l-1.479-.71a.535.535,0,0,0-.712.247.529.529,0,0,0,.248.708l1.409.676V34.824L17.1,27.4V9.309l11.777,5.652a.531.531,0,1,0,.464-.955L17.792,8.464l5.3-2.543,16.022,7.69.007.009v6.363a.53.53,0,0,0,.25.449.536.536,0,0,0,.515.028l3.991-1.915a.53.53,0,0,0,.3-.478v-6.4L49.1,9.309V27.4Z" transform="translate(-16.032 0.001)"/>
</svg>
