<svg xmlns="http://www.w3.org/2000/svg" width="30.77" height="23.077" viewBox="0 0 30.77 23.077">
  <path id="Path_17" data-name="Path 17" d="M483.192,259.263H460.115a3.846,3.846,0,0,0-3.846,3.846v15.385a3.846,3.846,0,0,0,3.846,3.846h23.077a3.846,3.846,0,0,0,3.846-3.846V263.109A3.846,3.846,0,0,0,483.192,259.263Zm-6.331,10.263L485,262.55a1.85,1.85,0,0,1,.112.559v15.385a1.812,1.812,0,0,1-.077.377Zm6.331-8.34a1.787,1.787,0,0,1,.36.073l-11.9,10.2-11.9-10.2a1.787,1.787,0,0,1,.361-.073ZM458.268,278.87a1.825,1.825,0,0,1-.076-.376V263.109a1.849,1.849,0,0,1,.114-.559l8.138,6.975Zm1.847,1.547a1.864,1.864,0,0,1-.549-.111l8.339-9.529,3.123,2.676a.955.955,0,0,0,1.25,0l3.123-2.676,8.339,9.529a1.854,1.854,0,0,1-.548.111Z" transform="translate(-456.269 -259.263)" fill="#fff"/>
</svg>
