<svg xmlns="http://www.w3.org/2000/svg" width="30.643" height="20.364" viewBox="0 0 30.643 20.364">
  <path id="Path_30" data-name="Path 30" d="M734.366,34.064a1.336,1.336,0,0,1-1.334-1.334v-17.4A1.336,1.336,0,0,1,734.366,14H762.04a1.336,1.336,0,0,1,1.334,1.334v17.4a1.336,1.336,0,0,1-1.334,1.334Zm.276-1.126-.021.022-.37.412h27.928l-.4-.418-.016-.016-6.714-8.294a.346.346,0,0,1,.537-.435l7.095,8.764V15.186l-13.007,9.755a2.584,2.584,0,0,1-2.946,0l-13.006-9.755V32.974l7.095-8.764a.346.346,0,0,1,.538.435Zm13.569-8.228a1.79,1.79,0,0,0,1.052-.323l12.926-9.7H734.218l12.927,9.7a1.789,1.789,0,0,0,1.05.322h.015Z" transform="translate(-732.882 -13.85)" fill="#ff0fbe" stroke="#ff0fbe" stroke-width="0.3"/>
</svg>
