<svg xmlns="http://www.w3.org/2000/svg" width="38.38" height="36.6" viewBox="0 0 38.38 36.6">
  <g id="Group_1702" data-name="Group 1702" transform="translate(-828.3 -528.3)">
    <path id="Shape" d="M23.492,15.269a9.9,9.9,0,0,1-2.551-1.917A43.106,43.106,0,0,0,18.957,1.262.388.388,0,0,0,18.573,1a.4.4,0,0,0-.368.287,37.2,37.2,0,0,0-.806,7.9c-.277.414-.6.866-.947,1.333,0,.005-.008.011-.012.016-1.526,2.045-3.549,4.309-4.577,4.309s-3.052-2.265-4.579-4.31l-.01-.014c-.348-.467-.669-.92-.949-1.334a37.033,37.033,0,0,0-.8-7.9A.4.4,0,0,0,5.153,1a.385.385,0,0,0-.385.263A43.106,43.106,0,0,0,2.785,13.353,9.9,9.9,0,0,1,.234,15.269.4.4,0,0,0,0,15.63a16.371,16.371,0,0,0,.119,1.948l0,.018a11.26,11.26,0,0,0,1.87,5.3,8.413,8.413,0,0,0,.4,1.557.4.4,0,0,0,.373.27h18.19a.4.4,0,0,0,.375-.27,8.413,8.413,0,0,0,.4-1.557,11.255,11.255,0,0,0,1.87-5.3l0-.018a16.37,16.37,0,0,0,.117-1.948.4.4,0,0,0-.234-.361Zm-.557.605c-.005.356-.026.694-.052,1.021A15.165,15.165,0,0,1,17.2,10.832c.2-.271.374-.516.518-.722A12.557,12.557,0,0,0,22.935,15.875ZM18.649,2.968a44.538,44.538,0,0,1,1.468,9.467A13.222,13.222,0,0,1,18.19,9.219a46.331,46.331,0,0,1,.459-6.251Zm-13.571,0a46.433,46.433,0,0,1,.458,6.251A13.234,13.234,0,0,1,3.61,12.436,44.565,44.565,0,0,1,5.078,2.97Zm.928,7.141c.144.205.319.451.518.722A15.158,15.158,0,0,1,.845,16.9C.818,16.567.8,16.23.793,15.874A12.57,12.57,0,0,0,6.006,10.11ZM20.67,23.934H3.056c-.109-.346-.177-.6-.219-.791H20.889C20.847,23.33,20.779,23.589,20.67,23.934ZM2.57,22.353A10.681,10.681,0,0,1,.94,17.76a16.31,16.31,0,0,0,6.117-6.222c1.383,1.791,3.428,4.092,4.806,4.092s3.423-2.3,4.806-4.092a16.327,16.327,0,0,0,6.116,6.221,10.781,10.781,0,0,1-1.63,4.593Z" transform="translate(835 532.427)"/>
    <path id="Path_425" data-name="Path 425" d="M37.893,31.669l-1.78-1.78a.3.3,0,0,0-.046-.038l-.019-.01a.284.284,0,0,0-.032-.017l-.03-.009-.026-.008a.3.3,0,0,0-.116,0l-.024.007a.278.278,0,0,0-.031.009.3.3,0,0,0-.03.016l-.021.011a.3.3,0,0,0-.046.038l-1.78,1.78a.3.3,0,1,0,.42.42l1.257-1.257a17.5,17.5,0,1,1-3.267-10.942.3.3,0,1,0,.482-.347A18.1,18.1,0,1,0,36.185,30.8l1.289,1.289a.3.3,0,1,0,.42-.42Z" transform="translate(828.5 516.502)" stroke="#000" stroke-width="0.4"/>
  </g>
</svg>
