<svg xmlns="http://www.w3.org/2000/svg" width="31" height="31" viewBox="0 0 31 31">
  <g id="Group_13" data-name="Group 13" transform="translate(-0.262 0)">
    <g id="Ellipse_3" data-name="Ellipse 3" transform="translate(0.262 0)" fill="none" stroke="#fff" stroke-width="1.5">
      <circle cx="15.5" cy="15.5" r="15.5" stroke="none"/>
      <circle cx="15.5" cy="15.5" r="14.75" fill="none"/>
    </g>
    <g id="Group_12" data-name="Group 12" transform="translate(6.762 6.63)">
      <path id="Path_8" data-name="Path 8" d="M219.741,138.726c2.408,0,2.693.009,3.645.053a5,5,0,0,1,1.674.311,2.981,2.981,0,0,1,1.711,1.711,5,5,0,0,1,.311,1.674c.043.952.053,1.237.053,3.645s-.01,2.693-.053,3.644a5,5,0,0,1-.311,1.675,2.981,2.981,0,0,1-1.711,1.711,4.98,4.98,0,0,1-1.674.31c-.952.043-1.236.053-3.645.053s-2.693-.009-3.644-.053a4.986,4.986,0,0,1-1.675-.31,2.987,2.987,0,0,1-1.711-1.711,4.982,4.982,0,0,1-.31-1.675c-.043-.951-.053-1.236-.053-3.644s.009-2.693.053-3.645a4.98,4.98,0,0,1,.31-1.674,2.987,2.987,0,0,1,1.711-1.711,5,5,0,0,1,1.675-.311c.951-.043,1.236-.053,3.644-.053m0-1.625c-2.45,0-2.756.011-3.718.054a6.632,6.632,0,0,0-2.189.419,4.612,4.612,0,0,0-2.637,2.638,6.6,6.6,0,0,0-.419,2.189c-.044.962-.054,1.269-.054,3.718s.01,2.756.054,3.718a6.6,6.6,0,0,0,.419,2.189,4.612,4.612,0,0,0,2.637,2.638,6.655,6.655,0,0,0,2.189.419c.962.043,1.269.054,3.718.054s2.756-.01,3.718-.054a6.65,6.65,0,0,0,2.189-.419,4.617,4.617,0,0,0,2.638-2.638,6.628,6.628,0,0,0,.419-2.189c.044-.962.054-1.269.054-3.718s-.01-2.756-.054-3.718a6.628,6.628,0,0,0-.419-2.189,4.617,4.617,0,0,0-2.638-2.638,6.626,6.626,0,0,0-2.189-.419c-.962-.043-1.269-.054-3.718-.054" transform="translate(-210.722 -137.101)" fill="#fff"/>
      <path id="Path_9" data-name="Path 9" d="M220.429,142.178a4.631,4.631,0,1,0,4.631,4.631,4.631,4.631,0,0,0-4.631-4.631m0,7.637a3.006,3.006,0,1,1,3.006-3.006,3.006,3.006,0,0,1-3.006,3.006" transform="translate(-211.411 -137.79)" fill="#fff"/>
      <path id="Path_10" data-name="Path 10" d="M227.638,141.8a1.082,1.082,0,1,1-1.082-1.082,1.082,1.082,0,0,1,1.082,1.082" transform="translate(-212.723 -137.591)" fill="#fff"/>
    </g>
  </g>
</svg>
