<svg xmlns="http://www.w3.org/2000/svg" width="26" height="26" viewBox="0 0 26 26">
  <g id="Group_1664" data-name="Group 1664" transform="translate(-0.262 0)">
    <g id="Path_467" data-name="Path 467" transform="translate(0.262 0)" fill="none">
      <path d="M13,0A13,13,0,1,1,0,13,13,13,0,0,1,13,0Z" stroke="none"/>
      <path d="M 13 1 C 9.794679641723633 1 6.781219482421875 2.248220443725586 4.514720916748047 4.514720916748047 C 2.248220443725586 6.781219482421875 1 9.794679641723633 1 13 C 1 16.20532035827637 2.248220443725586 19.21878051757812 4.514720916748047 21.48527908325195 C 6.781219482421875 23.75177955627441 9.794679641723633 25 13 25 C 16.20532035827637 25 19.21878051757812 23.75177955627441 21.48527908325195 21.48527908325195 C 23.75177955627441 19.21878051757812 25 16.20532035827637 25 13 C 25 9.794679641723633 23.75177955627441 6.781219482421875 21.48527908325195 4.514720916748047 C 19.21878051757812 2.248220443725586 16.20532035827637 1 13 1 M 13 0 C 20.1796989440918 0 26 5.82029914855957 26 13 C 26 20.1796989440918 20.1796989440918 26 13 26 C 5.82029914855957 26 0 20.1796989440918 0 13 C 0 5.82029914855957 5.82029914855957 0 13 0 Z" stroke="none" fill="#000"/>
    </g>
    <g id="Group_12" data-name="Group 12" transform="translate(6.263 6)">
      <path id="Path_8" data-name="Path 8" d="M217.924,138.4c1.923,0,2.151.008,2.911.042a3.991,3.991,0,0,1,1.337.248,2.381,2.381,0,0,1,1.367,1.367,3.992,3.992,0,0,1,.248,1.337c.035.76.042.988.042,2.911s-.008,2.151-.042,2.91a3.993,3.993,0,0,1-.248,1.338,2.38,2.38,0,0,1-1.367,1.367,3.976,3.976,0,0,1-1.337.248c-.76.035-.987.042-2.911.042s-2.151-.008-2.91-.042a3.981,3.981,0,0,1-1.338-.248,2.385,2.385,0,0,1-1.367-1.367,3.979,3.979,0,0,1-.248-1.338c-.034-.759-.042-.987-.042-2.91s.008-2.151.042-2.911a3.978,3.978,0,0,1,.248-1.337,2.386,2.386,0,0,1,1.367-1.367,4,4,0,0,1,1.338-.248c.759-.035.987-.042,2.91-.042m0-1.3c-1.956,0-2.2.009-2.969.043a5.3,5.3,0,0,0-1.748.335,3.683,3.683,0,0,0-2.106,2.107,5.274,5.274,0,0,0-.335,1.748c-.035.768-.043,1.013-.043,2.969s.008,2.2.043,2.969a5.274,5.274,0,0,0,.335,1.748,3.683,3.683,0,0,0,2.106,2.107,5.314,5.314,0,0,0,1.748.335c.768.035,1.013.043,2.969.043s2.2-.008,2.969-.043a5.31,5.31,0,0,0,1.748-.335,3.687,3.687,0,0,0,2.107-2.107,5.293,5.293,0,0,0,.335-1.748c.035-.768.043-1.013.043-2.969s-.008-2.2-.043-2.969a5.292,5.292,0,0,0-.335-1.748,3.686,3.686,0,0,0-2.107-2.107,5.291,5.291,0,0,0-1.748-.335c-.768-.035-1.013-.043-2.969-.043" transform="translate(-210.722 -137.101)"/>
      <path id="Path_9" data-name="Path 9" d="M219.5,142.178a3.7,3.7,0,1,0,3.7,3.7,3.7,3.7,0,0,0-3.7-3.7m0,6.1a2.4,2.4,0,1,1,2.4-2.4,2.4,2.4,0,0,1-2.4,2.4" transform="translate(-212.294 -138.674)"/>
      <path id="Path_10" data-name="Path 10" d="M227.2,141.578a.864.864,0,1,1-.864-.864.864.864,0,0,1,.864.864" transform="translate(-215.292 -138.22)"/>
    </g>
  </g>
</svg>
