<svg id="Group_294" data-name="Group 294" xmlns="http://www.w3.org/2000/svg" width="18.753" height="27.629" viewBox="0 0 18.753 27.629">
  <g id="Group_292" data-name="Group 292">
    <path id="Path_166" data-name="Path 166" d="M88.334,0a9.387,9.387,0,0,0-9.377,9.377c0,2.078,1.223,5.238,3.85,9.944,1.792,3.211,3.576,5.924,3.651,6.038l1.289,1.954a.7.7,0,0,0,1.173,0l1.289-1.954c.075-.113,1.845-2.8,3.651-6.038,2.626-4.706,3.85-7.866,3.85-9.944A9.387,9.387,0,0,0,88.334,0Zm4.3,18.636c-1.781,3.191-3.524,5.838-3.6,5.949l-.7,1.066-.7-1.065c-.074-.112-1.83-2.783-3.6-5.949-2.436-4.366-3.671-7.481-3.671-9.259a7.971,7.971,0,1,1,15.943,0C96.305,11.155,95.07,14.27,92.634,18.636Z" transform="translate(-78.957 0)" fill="#ff0fbe"/>
    <path id="Path_167" data-name="Path 167" d="M158.49,73.291a5.2,5.2,0,1,0,5.2,5.2A5.2,5.2,0,0,0,158.49,73.291Zm0,8.993a3.794,3.794,0,1,1,3.794-3.794A3.8,3.8,0,0,1,158.49,82.284Z" transform="translate(-149.113 -69.172)" fill="#ff0fbe"/>
  </g>
</svg>
