<svg xmlns="http://www.w3.org/2000/svg" width="27.034" height="25.643" viewBox="0 0 27.034 25.643">
  <path id="Path_169" data-name="Path 169" d="M664.889,17.549a9.994,9.994,0,0,1,2.433-9.943.757.757,0,0,1,.386-.209c1.513-.294,2.5-.234,2.942.209a21.634,21.634,0,0,1,2.859,5.866c0,1.017-.494,1.91-1.86,3.329a10.119,10.119,0,0,0,3.667,4.678,18.133,18.133,0,0,0,4.634,3.02,10.662,10.662,0,0,0,2.742-3.088.732.732,0,0,1,.095-.116,1.7,1.7,0,0,1,1.994-.143,15.244,15.244,0,0,1,1.5.926c.862.571,2.049,1.354,3.44,2.134a.757.757,0,0,1,.364.8c0,.063-.009.125-.014.188a6.959,6.959,0,0,1-7.547,6.335,15.7,15.7,0,0,1-2.34-.189C672.866,30.238,667.133,23.418,664.889,17.549Z" transform="translate(-663.719 -6.574)" fill="none" stroke="#ff0fbe" stroke-miterlimit="10" stroke-width="1.3"/>
</svg>
