<svg xmlns="http://www.w3.org/2000/svg" xmlns:xlink="http://www.w3.org/1999/xlink" width="36.025" height="36.2" viewBox="0 0 36.025 36.2">
  <defs>
    <clipPath id="clip-path">
      <rect id="Rectangle_151" data-name="Rectangle 151" width="36.025" height="36.2"/>
    </clipPath>
  </defs>
  <g id="Group_1055" data-name="Group 1055" clip-path="url(#clip-path)">
    <path id="Path_316" data-name="Path 316" d="M180.652,92.31a.655.655,0,0,1,0-1.31h8.693a.655.655,0,0,1,0,1.31Z" transform="translate(-166.961 -84.376)"/>
    <path id="Path_317" data-name="Path 317" d="M180.652,152.31a.655.655,0,0,1,0-1.31h8.693a.655.655,0,0,1,0,1.31Z" transform="translate(-166.961 -140.008)"/>
    <path id="Path_318" data-name="Path 318" d="M60.652,212.31a.655.655,0,0,1,0-1.31H78.038a.655.655,0,0,1,0,1.31Z" transform="translate(-55.654 -195.641)"/>
    <path id="Path_319" data-name="Path 319" d="M60.652,272.31a.655.655,0,0,1,0-1.31H74.1a.655.655,0,0,1,0,1.31Z" transform="translate(-55.654 -251.273)"/>
    <path id="Path_320" data-name="Path 320" d="M2.825,36.4A2.835,2.835,0,0,1,0,33.557V9.463A.671.671,0,0,1,.189,9L8.882.194A.659.659,0,0,1,9.345,0H24.558a2.907,2.907,0,0,1,2.9,2.839V19.727h.435a8.335,8.335,0,0,1,0,16.669ZM27.89,21.037a7.015,7.015,0,0,0-7.027,6.988,7.027,7.027,0,1,0,14.054,0,7.015,7.015,0,0,0-7.027-6.988M1.3,33.557a1.527,1.527,0,0,0,1.521,1.529H23.3l-.869-.765a8.408,8.408,0,0,1-2.61-4.221l-.084-.327H5a.655.655,0,0,1,0-1.31H19.559v-.437a8.268,8.268,0,0,1,.263-2.074l.142-.547H5a.655.655,0,0,1,0-1.31H20.55l.126-.216a8.4,8.4,0,0,1,5.147-3.893l.328-.084V2.839A1.583,1.583,0,0,0,24.558,1.31H10V9.463a.654.654,0,0,1-.652.655H1.3ZM2.217,8.808H8.693V2.246Z" transform="translate(0 0)"/>
    <path id="Path_321" data-name="Path 321" d="M332.9,366.678a.647.647,0,0,1-.453-.184L330.2,364.31a.658.658,0,0,1-.015-.926.65.65,0,0,1,.922-.015l1.789,1.739,3.965-3.919a.654.654,0,0,1,.914.934l-4.419,4.368a.647.647,0,0,1-.457.188" transform="translate(-306.099 -334.722)"/>
  </g>
</svg>
