<svg id="conversation" xmlns="http://www.w3.org/2000/svg" width="36.403" height="36.2" viewBox="0 0 36.403 36.2">
  <g id="Group_866" data-name="Group 866" transform="translate(0 12.491)">
    <g id="Group_865" data-name="Group 865">
      <path id="Path_212" data-name="Path 212" d="M24.27,184.171a.7.7,0,0,0-.7.7v4.84a3.511,3.511,0,0,1-3.507,3.507H12.488a.7.7,0,0,0-.7.7v1.395l-1.674-1.674a.7.7,0,0,0-.643-.421H4.91A3.511,3.511,0,0,1,1.4,189.713v-10.8A3.511,3.511,0,0,1,4.91,175.4h7.085a.7.7,0,0,0,0-1.4H4.91A4.916,4.916,0,0,0,0,178.91v10.8a4.916,4.916,0,0,0,4.91,4.91h4.2L11.99,197.5a.7.7,0,0,0,1.2-.5l0-2.385h6.873a4.916,4.916,0,0,0,4.91-4.91v-4.84A.7.7,0,0,0,24.27,184.171Z" transform="translate(0 -174)"/>
    </g>
  </g>
  <g id="Group_868" data-name="Group 868" transform="translate(14.237)">
    <g id="Group_867" data-name="Group 867">
      <path id="Path_213" data-name="Path 213" d="M207.971,0H206.2a10.2,10.2,0,1,0,0,20.391h1.775a10.215,10.215,0,0,0,2.588-.332l2.623,2.621a.7.7,0,0,0,1.2-.5V18.125a10.293,10.293,0,0,0,2.68-3.3,10.085,10.085,0,0,0,1.108-4.626A10.207,10.207,0,0,0,207.971,0Zm5.284,17.223a.7.7,0,0,0-.279.56v2.708l-1.717-1.716a.7.7,0,0,0-.7-.174,8.8,8.8,0,0,1-2.586.387H206.2a8.792,8.792,0,1,1,0-17.585h1.775a8.793,8.793,0,0,1,5.284,15.82Z" transform="translate(-196 0)"/>
    </g>
  </g>
  <g id="Group_870" data-name="Group 870" transform="translate(22.418 4.915)">
    <g id="Group_869" data-name="Group 869">
      <path id="Path_214" data-name="Path 214" d="M320.394,72.824a2.977,2.977,0,0,0-2.754-2.753,2.947,2.947,0,0,0-2.235.791,2.98,2.98,0,0,0-.944,2.171.7.7,0,1,0,1.4,0,1.567,1.567,0,0,1,1.68-1.563,1.567,1.567,0,0,1,.232,3.092,1.327,1.327,0,0,0-1.046,1.3v1.685a.7.7,0,1,0,1.4,0V75.919A2.955,2.955,0,0,0,320.394,72.824Z" transform="translate(-314.462 -70.063)" fill="#ff0fbe"/>
    </g>
  </g>
  <g id="Group_872" data-name="Group 872" transform="translate(24.671 14.593)">
    <g id="Group_871" data-name="Group 871">
      <path id="Path_215" data-name="Path 215" d="M348,206.536a.7.7,0,1,0,.206.5A.707.707,0,0,0,348,206.536Z" transform="translate(-346.8 -206.33)" fill="#ff0fbe"/>
    </g>
  </g>
  <g id="Group_874" data-name="Group 874" transform="translate(3.788 21.925)">
    <g id="Group_873" data-name="Group 873">
      <path id="Path_216" data-name="Path 216" d="M69.5,310H54.7a.7.7,0,0,0,0,1.4H69.5a.7.7,0,0,0,0-1.4Z" transform="translate(-54 -310)"/>
    </g>
  </g>
  <g id="Group_876" data-name="Group 876" transform="translate(18.852 25.886)">
    <g id="Group_875" data-name="Group 875">
      <path id="Path_217" data-name="Path 217" d="M266.2,366.206a.7.7,0,1,0,.206.5A.707.707,0,0,0,266.2,366.206Z" transform="translate(-265 -366)"/>
    </g>
  </g>
  <g id="Group_878" data-name="Group 878" transform="translate(3.788 25.886)">
    <g id="Group_877" data-name="Group 877">
      <path id="Path_218" data-name="Path 218" d="M66.743,366H54.7a.7.7,0,1,0,0,1.4H66.743a.7.7,0,1,0,0-1.4Z" transform="translate(-54 -366)"/>
    </g>
  </g>
  <g id="Group_880" data-name="Group 880" transform="translate(3.788 17.964)">
    <g id="Group_879" data-name="Group 879">
      <path id="Path_219" data-name="Path 219" d="M64.943,254H54.7a.7.7,0,1,0,0,1.4H64.943a.7.7,0,0,0,0-1.4Z" transform="translate(-54 -254)"/>
    </g>
  </g>
</svg>
