<svg xmlns="http://www.w3.org/2000/svg" width="53.091" height="36.199" viewBox="0 0 53.091 36.199">
  <g id="Group_1463" data-name="Group 1463" transform="translate(-632.981 -528)">
    <g id="Group_1462" data-name="Group 1462" transform="translate(632.981 528)">
      <g id="Group_102" data-name="Group 102" transform="translate(10.181 0) rotate(90)">
        <path id="Path_44" data-name="Path 44" d="M35.634,0H.566A.566.566,0,0,0,0,.566v9.05a.566.566,0,0,0,.566.566H35.634a.566.566,0,0,0,.566-.566V.566A.566.566,0,0,0,35.634,0Zm-.566,9.05H1.131V1.131H35.068Z"/>
      </g>
      <g id="Group_104" data-name="Group 104" transform="translate(12.444 0) rotate(90)">
        <path id="Path_45" data-name="Path 45" d="M35.634,0H.566A.566.566,0,0,0,0,.566V2.828a.566.566,0,0,0,.566.566H35.634a.566.566,0,0,0,.566-.566V.566A.566.566,0,0,0,35.634,0Zm-.566,2.262H1.131V1.131H35.068Z"/>
      </g>
      <g id="Group_106" data-name="Group 106" transform="translate(4.526 3.959) rotate(90)">
        <path id="Path_46" data-name="Path 46" d="M.566,0A.566.566,0,0,0,0,.566V3.959a.566.566,0,1,0,1.131,0V.566A.566.566,0,0,0,.566,0Z"/>
      </g>
      <g id="Group_108" data-name="Group 108" transform="translate(4.526 13.009) rotate(90)">
        <path id="Path_47" data-name="Path 47" d="M.566,0A.566.566,0,0,0,0,.566V3.959a.566.566,0,1,0,1.131,0V.566A.566.566,0,0,0,.566,0Z"/>
      </g>
      <g id="Group_110" data-name="Group 110" transform="translate(4.526 22.059) rotate(90)">
        <path id="Path_48" data-name="Path 48" d="M.566,0A.566.566,0,0,0,0,.566V3.959a.566.566,0,1,0,1.131,0V.566A.566.566,0,0,0,.566,0Z"/>
      </g>
      <g id="Group_112" data-name="Group 112" transform="translate(4.526 31.109) rotate(90)">
        <path id="Path_49" data-name="Path 49" d="M.566,0A.566.566,0,0,0,0,.566V3.959a.566.566,0,1,0,1.131,0V.566A.566.566,0,0,0,.566,0Z"/>
      </g>
      <g id="Group_114" data-name="Group 114" transform="translate(7.354 26.584) rotate(90)">
        <path id="Path_50" data-name="Path 50" d="M.566,0A.566.566,0,0,0,0,.566V6.787a.566.566,0,0,0,1.131,0V.566A.566.566,0,0,0,.566,0Z"/>
      </g>
      <g id="Group_116" data-name="Group 116" transform="translate(7.354 17.534) rotate(90)">
        <path id="Path_51" data-name="Path 51" d="M.566,0A.566.566,0,0,0,0,.566V6.787a.566.566,0,0,0,1.131,0V.566A.566.566,0,0,0,.566,0Z"/>
      </g>
      <g id="Group_118" data-name="Group 118" transform="translate(7.354 8.484) rotate(90)">
        <path id="Path_52" data-name="Path 52" d="M.566,0A.566.566,0,0,0,0,.566V6.787a.566.566,0,0,0,1.131,0V.566A.566.566,0,0,0,.566,0Z"/>
      </g>
    </g>
    <path id="Shape" d="M35.841,22.771a15.1,15.1,0,0,1-3.891-2.924A65.766,65.766,0,0,0,28.923,1.4a.592.592,0,0,0-.587-.4.6.6,0,0,0-.561.437c-1.127,3.946-1.221,10.81-1.23,12.046-.422.631-.913,1.322-1.444,2.034-.007.008-.011.017-.019.025-2.328,3.12-5.415,6.574-6.983,6.574s-4.656-3.456-6.986-6.576c-.006-.007-.01-.014-.016-.021-.532-.712-1.021-1.4-1.448-2.035-.005-1.236-.1-8.1-1.227-12.046A.6.6,0,0,0,7.862,1a.588.588,0,0,0-.587.4A65.766,65.766,0,0,0,4.249,19.847,15.1,15.1,0,0,1,.357,22.771.6.6,0,0,0,0,23.322a24.977,24.977,0,0,0,.181,2.972l0,.028A17.179,17.179,0,0,0,3.037,34.41a12.836,12.836,0,0,0,.617,2.375.6.6,0,0,0,.57.413H31.975a.6.6,0,0,0,.572-.413,12.836,12.836,0,0,0,.617-2.375,17.172,17.172,0,0,0,2.852-8.089l0-.028a24.976,24.976,0,0,0,.179-2.972.6.6,0,0,0-.357-.551Zm-.849.924c-.008.543-.039,1.058-.08,1.558A23.137,23.137,0,0,1,26.248,16c.3-.413.571-.788.791-1.1A19.159,19.159,0,0,0,34.992,23.695ZM28.452,4a67.952,67.952,0,0,1,2.239,14.444,20.172,20.172,0,0,1-2.939-4.908A70.687,70.687,0,0,1,28.452,4ZM7.747,4a70.842,70.842,0,0,1,.7,9.537,20.191,20.191,0,0,1-2.939,4.907A67.993,67.993,0,0,1,7.747,4.006ZM9.163,14.9c.22.313.487.688.791,1.1a23.127,23.127,0,0,1-8.665,9.252c-.04-.5-.071-1.015-.079-1.559A19.179,19.179,0,0,0,9.163,14.9ZM31.536,35.992H4.662c-.167-.527-.27-.922-.334-1.207H31.87C31.806,35.07,31.7,35.465,31.536,35.992ZM3.922,33.578a16.3,16.3,0,0,1-2.488-7.007,24.885,24.885,0,0,0,9.333-9.492c2.11,2.732,5.229,6.243,7.333,6.243s5.223-3.511,7.333-6.243a24.91,24.91,0,0,0,9.331,9.492,16.448,16.448,0,0,1-2.486,7.007Z" transform="translate(649.874 527.001)"/>
  </g>
</svg>
