<svg xmlns="http://www.w3.org/2000/svg" width="60" height="60" viewBox="0 0 60 60">
  <g id="Group_1486" data-name="Group 1486" transform="translate(-60 -828)">
    <path id="Path_427" data-name="Path 427" d="M30,0A30,30,0,1,1,0,30,30,30,0,0,1,30,0Z" transform="translate(60 828)"/>
    <g id="Group_1485" data-name="Group 1485" transform="translate(138.435 841)">
      <g id="Group_1485-2" data-name="Group 1485" transform="translate(-66.435 -1)">
        <path id="Path_427-2" data-name="Path 427" d="M-66.435,35.8l3.315-9.946A17.934,17.934,0,0,1-65.5,16.962,17.982,17.982,0,0,1-47.538-1,17.982,17.982,0,0,1-29.576,16.962,17.982,17.982,0,0,1-47.538,34.924a17.846,17.846,0,0,1-8.169-1.969ZM-47.538.218A16.763,16.763,0,0,0-64.283,16.962a16.778,16.778,0,0,0,2.353,8.523l.138.238-2.774,8.323,9-2.389.21.11a16.646,16.646,0,0,0,7.815,1.94A16.763,16.763,0,0,0-30.794,16.962,16.763,16.763,0,0,0-47.538.218Z" transform="translate(66.435 1)" fill="#fff"/>
      </g>
      <path id="Path_428" data-name="Path 428" d="M-31.146,27.071c-.792-1.522-3.775-3.227-3.775-3.227-.67-.365-1.461-.426-1.827.244,0,0-.974,1.157-1.218,1.34a2.242,2.242,0,0,1-3.166-.3l-2.436-2.436L-46,20.252a2.19,2.19,0,0,1-.3-3.166c.183-.244,1.34-1.218,1.34-1.218a1.267,1.267,0,0,0,.244-1.827s-1.7-2.984-3.227-3.775a1.567,1.567,0,0,0-1.948.3l-1.1,1.1c-3.41,3.41-1.7,7.246,1.644,10.655l3.105,3.105,3.105,3.105c3.41,3.41,7.246,5.054,10.655,1.644l1.1-1.1A2.017,2.017,0,0,0-31.146,27.071Z" transform="translate(-5.31 -4.325)" fill="#fff"/>
    </g>
  </g>
</svg>
