<svg xmlns="http://www.w3.org/2000/svg" width="28" height="28" viewBox="0 0 28 28">
  <g id="Group_1490" data-name="Group 1490" transform="translate(-535 -906)">
    <g id="Ellipse_23" data-name="Ellipse 23" transform="translate(535 906)" fill="none" stroke="#000" stroke-width="1">
      <circle cx="14" cy="14" r="14" stroke="none"/>
      <circle cx="14" cy="14" r="13.5" fill="none"/>
    </g>
    <path id="Path_19" data-name="Path 19" d="M118.945,259.989c-.362-.178-2.114-1.037-2.441-1.152s-.567-.178-.806.178-.926,1.151-1.131,1.382-.416.267-.777.089a9.673,9.673,0,0,1-2.87-1.759,10.542,10.542,0,0,1-1.983-2.448c-.2-.354-.02-.546.156-.722s.355-.416.538-.621c.048-.061.09-.115.129-.171a3.905,3.905,0,0,0,.226-.422.643.643,0,0,0-.027-.621c-.09-.178-.806-1.922-1.105-2.631s-.592-.587-.8-.587-.443-.034-.682-.034a1.32,1.32,0,0,0-.953.443,3.965,3.965,0,0,0-1.247,2.959,4.485,4.485,0,0,0,.183,1.206,8.028,8.028,0,0,0,1.274,2.454c.178.232,2.468,3.927,6.095,5.352s3.633.94,4.288.879a3.564,3.564,0,0,0,2.405-1.684,2.918,2.918,0,0,0,.212-1.685C119.537,260.255,119.3,260.165,118.945,259.989Z" transform="translate(436.332 663.028)" fill="none" stroke="#000" stroke-width="1" fill-rule="evenodd"/>
  </g>
</svg>
