<svg xmlns="http://www.w3.org/2000/svg" width="26.826" height="26.831" viewBox="0 0 26.826 26.831">
  <g id="Group_24" data-name="Group 24" transform="translate(0 0)">
    <g id="Group_25" data-name="Group 25">
      <path id="Path_18" data-name="Path 18" d="M126.359,257.683a13.172,13.172,0,0,0-26.32-.24c-.006.19-.012.382-.012.573a12.971,12.971,0,0,0,1.886,6.751l-2.375,7.009,7.293-2.318a13.186,13.186,0,0,0,19.533-11.443C126.365,257.905,126.365,257.793,126.359,257.683ZM113.2,269a11.027,11.027,0,0,1-6.091-1.818l-4.254,1.356,1.381-4.081a10.875,10.875,0,0,1-2.109-6.443,10.133,10.133,0,0,1,.055-1.066,11.077,11.077,0,0,1,22.054.209c.024.284.036.567.036.857A11.041,11.041,0,0,1,113.2,269Z" transform="translate(-99.539 -244.945)" fill="#fff" fill-rule="evenodd"/>
      <path id="Path_19" data-name="Path 19" d="M117.628,259.08c-.328-.161-1.912-.938-2.208-1.042s-.513-.161-.729.161-.838,1.041-1.023,1.25-.377.242-.7.081a8.748,8.748,0,0,1-2.6-1.591,9.534,9.534,0,0,1-1.794-2.214c-.185-.32-.018-.493.141-.653s.321-.376.487-.561c.044-.055.081-.1.117-.154a3.538,3.538,0,0,0,.2-.382.581.581,0,0,0-.024-.562c-.081-.161-.729-1.739-1-2.38s-.536-.531-.727-.531-.4-.031-.617-.031a1.194,1.194,0,0,0-.862.4,3.586,3.586,0,0,0-1.128,2.677,4.057,4.057,0,0,0,.166,1.091,7.261,7.261,0,0,0,1.153,2.219c.161.209,2.232,3.552,5.512,4.84s3.286.851,3.878.8a3.223,3.223,0,0,0,2.175-1.523,2.639,2.639,0,0,0,.191-1.524C118.164,259.32,117.948,259.239,117.628,259.08Z" transform="translate(-97.935 -243.37)" fill="#fff" fill-rule="evenodd"/>
    </g>
  </g>
</svg>
