<svg xmlns="http://www.w3.org/2000/svg" xmlns:xlink="http://www.w3.org/1999/xlink" width="177.071" height="46.669" viewBox="0 0 177.071 46.669">
  <defs>
    <clipPath id="clip-path">
      <path id="Path_230" data-name="Path 230" d="M670.046,474.611a25.967,25.967,0,0,0-4.317,4.4c9.51-.681,16.648.455,25.655,5.57.109.062-3.262-12.675-10.346-14.213a7.085,7.085,0,0,0-1.507-.158c-3.356,0-6.851,2.2-9.484,4.4" transform="translate(-665.725 -470.21)" fill="none"/>
    </clipPath>
  </defs>
  <g id="Group_486" data-name="Group 486" transform="translate(1)">
    <text id="בואי_תגלי_מה_מידת_החזה_שלך_" data-name="בואי תגלי מה מידת החזה שלך " transform="translate(52 40)" fill="#fff" font-size="15" font-family="Assistant-Regular, Assistant"><tspan x="-52.282" y="0">מוצר תוצרת ישראל</tspan></text>
    <path id="Path_226" data-name="Path 226" d="M644.912,482.463a23.335,23.335,0,1,0-23.335-23.335,23.335,23.335,0,0,0,23.335,23.335" transform="translate(-492.175 -435.794)" fill="#fff"/>
    <path id="Path_227" data-name="Path 227" d="M665.728,479.011c-.2.014,8.224-10.181,15.309-8.643s10.455,14.276,10.346,14.213c-9.007-5.116-16.145-6.251-25.655-5.57" transform="translate(-525.166 -461.512)" fill="#fff"/>
    <path id="Path_228" data-name="Path 228" d="M665.728,479.011c-.2.014,8.224-10.181,15.309-8.643s10.455,14.276,10.346,14.213c-9.007-5.116-16.145-6.251-25.655-5.57" transform="translate(-525.166 -461.512)" fill="#161615"/>
    <g id="Group_457" data-name="Group 457" transform="translate(140.559 8.698)">
      <g id="Group_456" data-name="Group 456" transform="translate(0)" clip-path="url(#clip-path)">
        <path id="Path_229" data-name="Path 229" d="M690.9,480.372c-.2-.005,4.409-10.129,8.912-9.98,2.78.092,3.46,13.015,3.351,12.954-9.007-5.116-3.59-2.748-12.263-2.973" transform="translate(-684.531 -470.345)" fill="#fff"/>
      </g>
    </g>
    <path id="Path_231" data-name="Path 231" d="M648.5,532.928a39.458,39.458,0,0,1,1.485-4.262c.145-.385.232-1.042-.312-1.075q-.615.018-1.229.059.258-.525.535-1.04c-.494.049-.987.111-1.478.188a28.444,28.444,0,0,0-1.584,3.383q.721-.018,1.441-.006c.206.017.132.257.084.395-.071.2-.159.465-.4.471q-.378-.018-.756-.03-.48,1.378-.836,2.794.959.155,1.916.322c.609.038.969-.687,1.133-1.2" transform="translate(-510.02 -503.66)" fill="#161615"/>
    <path id="Path_232" data-name="Path 232" d="M663.73,538.319q-.286-1.474-.528-2.958,1.22-2.34,2.625-4.568-1.136-.133-2.276-.223c-.183.289-.369.577-.546.87-.075.141-.157.47-.331.5-.035,0-.023-.071-.023-.094a5.845,5.845,0,0,0-.043-.685c-.042-.363-.193-.653-.571-.689q-.906-.041-1.812-.047a40.622,40.622,0,0,0-2.322,6.77q1.007.183,2.013.373.192-.79.408-1.575a5.539,5.539,0,0,0,.178-.723c.006-.021,0-.043.01-.064s.031-.1.074-.094.036.047.044.071c.038.2.041.409.059.614.07.663.181,1.319.293,1.974q1.376.266,2.751.543" transform="translate(-519.32 -506.513)" fill="#161615"/>
    <path id="Path_233" data-name="Path 233" d="M692.116,540.9q.716-3.293,1.436-6.584a1.29,1.29,0,0,0-.912-1.517q-2.156-.42-4.337-.7-.5,1.492-.945,3.006,1.222.19,2.438.411c.279.063.354.28.292.555q-.525,2.087-1,4.186,1.514.318,3.026.646" transform="translate(-541.332 -507.757)" fill="#161615"/>
    <path id="Path_234" data-name="Path 234" d="M718.863,544.8a52.668,52.668,0,0,0,.651-6.038q-1.012-.378-2.037-.717c-.11,1.321-.264,2.638-.454,3.951-.044.26-.177.446-.449.384l-.257-.07c.233-1.48.426-2.966.567-4.458q-1.131-.359-2.275-.676-.317,2.258-.725,4.5c-.365-.087-.67-.222-.609-.671q.366-2,.678-4.009-1.2-.317-2.408-.591-.646,3.15-1.319,6.294a1.571,1.571,0,0,0,.951,1.855q3.189.708,6.368,1.461c.715.106,1.179-.561,1.318-1.218" transform="translate(-558.4 -510.983)" fill="#161615"/>
    <path id="Path_235" data-name="Path 235" d="M749.854,551.243q.146-1.355.2-2.716a1.7,1.7,0,0,0-.787-1.556q-.59-.248-1.187-.479c-.051,1.357-.165,2.712-.332,4.062q1.057.331,2.105.689" transform="translate(-586.461 -518.516)" fill="#161615"/>
    <path id="Path_236" data-name="Path 236" d="M759.505,558.554q.255-1.4.384-2.808c-.078-.034-.295-.109-.373-.143q.032-.365.056-.73t.037-.708q.019-.5.022-.992a1.735,1.735,0,0,0-.554-1.409c-.8-.448-1.616-.858-2.446-1.241,0,.969-.039,1.939-.115,2.906q.74.282,1.472.586c.19.092.2.316.19.51q-.021.257-.045.513-.85-.329-1.708-.63-.174,1.607-.471,3.2c1.14.291,2.417.633,3.551.95" transform="translate(-592.593 -521.528)" fill="#161615"/>
    <path id="Path_237" data-name="Path 237" d="M663.57,513.516a27.67,27.67,0,0,1,2.072-3.572c.268-.459-.38-.534-.681-.518a26.144,26.144,0,0,0-3.557.555q-.62.695-1.178,1.446c.615-.132,1.234-.239,1.855-.325.159-.018.279.027.17.2a26.443,26.443,0,0,0-1.392,2.3c.9-.063,1.807-.088,2.711-.084" transform="translate(-521.057 -490.816)" fill="#161615"/>
    <path id="Path_238" data-name="Path 238" d="M686.467,509.661q-1.429-.271-2.876-.435a2.948,2.948,0,0,0-.6.336q-.293-.228-.592-.448c-1.083-.079-2.169-.111-3.257-.088.546.455,1.073.935,1.586,1.429a4.919,4.919,0,0,0,.559.454c.133.092.274.168.41.256.039.021.121.059.1.118-.042.078-.17.055-.239.048-.627-.061-1.252-.146-1.882-.179q-.892-.04-1.785-.04c-.389.69-.749,1.4-1.087,2.115a53.806,53.806,0,0,1,8.259.942q.236-.936.481-1.869a.868.868,0,0,0-.327-.759c-.27-.253-.546-.5-.823-.744.68-.4,1.372-.786,2.079-1.137" transform="translate(-533.441 -490.514)" fill="#161615"/>
    <path id="Path_239" data-name="Path 239" d="M717.948,517.732c.158-1.346.285-2.7.352-4.051-.043-.615-.8-.9-1.283-1.046q-.9-.241-1.814-.438-.509,2.295-1.012,4.591,1.894.412,3.758.944" transform="translate(-561.383 -492.889)" fill="#161615"/>
    <path id="Path_240" data-name="Path 240" d="M736.45,519.9c-.032-.578-.08-1.155-.148-1.73-.128-.606-.751-.967-1.259-1.182q-.826-.322-1.667-.6c.01.789-.011,1.578-.051,2.367q1.583.514,3.125,1.148" transform="translate(-575.682 -496.015)" fill="#161615"/>
    <path id="Path_241" data-name="Path 241" d="M753.153,528.528a22.96,22.96,0,0,0-.575-2.954,2.564,2.564,0,0,0-.926-1.255,28.977,28.977,0,0,0-4.339-2.484c.107.591.187,1.187.248,1.787l.294.133c.106,1.007.156,2.02.165,3.034q1.239.52,2.444,1.119a27.322,27.322,0,0,0-.32-2.991q.278.156.552.318a.706.706,0,0,1,.353.47c.05.335-.2.21-.388.1.112.77.189,1.545.235,2.324q.822.431,1.618.91c.411.218.675-.069.639-.511" transform="translate(-586.135 -500.09)" fill="#161615"/>
    <g id="Group_459" data-name="Group 459" transform="translate(22.581 1.15)">
      <g id="Group_295" data-name="Group 295" transform="translate(0 4.268)">
        <g id="Group_294" data-name="Group 294">
          <path id="Path_142" data-name="Path 142" d="M807.958,619.693a1.262,1.262,0,0,1-.432,1.125,2.014,2.014,0,0,1-2.077,0,1.226,1.226,0,0,1-.432-1.1,7.209,7.209,0,1,1,2.941-5.883Zm-4.167-8.81a4.259,4.259,0,1,0,1.226,3.533v-.548a2.427,2.427,0,0,1,.014-.26,4.019,4.019,0,0,0-1.24-2.725" transform="translate(-793.567 -606.715)" fill="#fff"/>
        </g>
      </g>
      <g id="Group_297" data-name="Group 297" transform="translate(15.602 4.239)">
        <g id="Group_296" data-name="Group 296">
          <path id="Path_143" data-name="Path 143" d="M847.781,608.749a1.423,1.423,0,0,1-.173-.692,1.427,1.427,0,0,1,1.442-1.442,1.423,1.423,0,0,1,1.024.418,1.356,1.356,0,0,1,.332.534l4.412,8.81,4.4-8.81a1.421,1.421,0,0,1,.346-.534,1.447,1.447,0,0,1,2.321,1.658l-8.536,17.145a2.065,2.065,0,0,1-.39.534,1.4,1.4,0,0,1-1.023.432,1.379,1.379,0,0,1-1.024-.425,1.4,1.4,0,0,1-.418-1.016,1.841,1.841,0,0,1,.188-.836l2.523-4.932Z" transform="translate(-847.608 -606.615)" fill="#fff"/>
        </g>
      </g>
      <g id="Group_299" data-name="Group 299" transform="translate(61.812)">
        <g id="Group_298" data-name="Group 298">
          <path id="Path_144" data-name="Path 144" d="M1010.171,592.364a1.416,1.416,0,0,1,.432,1.039V609.12a1.471,1.471,0,0,1-2.941,0V593.4a1.468,1.468,0,0,1,2.509-1.039" transform="translate(-1007.662 -591.932)" fill="#fff"/>
        </g>
      </g>
      <g id="Group_301" data-name="Group 301" transform="translate(67.594 4.268)">
        <g id="Group_300" data-name="Group 300">
          <path id="Path_145" data-name="Path 145" d="M1042.079,619.693a1.26,1.26,0,0,1-.432,1.125,2.013,2.013,0,0,1-2.077,0,1.225,1.225,0,0,1-.433-1.1,7.208,7.208,0,1,1,2.942-5.883Zm-4.167-8.81a4.261,4.261,0,1,0,1.225,3.533v-.548a2.366,2.366,0,0,1,.015-.26,4.023,4.023,0,0,0-1.24-2.725" transform="translate(-1027.689 -606.715)" fill="#fff"/>
        </g>
      </g>
      <path id="Path_146" data-name="Path 146" d="M928.5,609.292a7.163,7.163,0,0,0-12.227,5.063h-.006c0,.013,0,.026,0,.04a4.748,4.748,0,1,1-1.4-3.366l1.706-1.756a7.156,7.156,0,1,0,2.12,5.083h.006c0-.013,0-.026,0-.039a4.747,4.747,0,1,1,1.4,3.367l-1.706,1.756A7.161,7.161,0,0,0,928.5,609.292" transform="translate(-872.377 -602.787)" fill="#fd1cc0"/>
    </g>
  </g>
</svg>
