<svg xmlns="http://www.w3.org/2000/svg" width="255.763" height="76.201" viewBox="0 0 255.763 76.201">
  <g id="Group_1565" data-name="Group 1565" transform="translate(-1135 -222.5)">
    <g id="Group_295" data-name="Group 295" transform="translate(1135 235.815)">
      <g id="Group_294" data-name="Group 294">
        <path id="Path_142" data-name="Path 142" d="M838.461,647.2q0,2.61-1.347,3.509a6.285,6.285,0,0,1-6.481,0q-1.347-.9-1.348-3.418a22.488,22.488,0,1,1,9.176-18.354Zm-13-27.485a13.287,13.287,0,1,0,3.824,11.022v-1.709a7.617,7.617,0,0,1,.044-.81,12.539,12.539,0,0,0-3.868-8.5" transform="translate(-793.567 -606.715)"/>
      </g>
    </g>
    <g id="Group_297" data-name="Group 297" transform="translate(1183.674 235.725)">
      <g id="Group_296" data-name="Group 296">
        <path id="Path_143" data-name="Path 143" d="M848.146,613.273a4.439,4.439,0,0,1-.538-2.159,4.453,4.453,0,0,1,4.5-4.5,4.44,4.44,0,0,1,3.194,1.3,4.226,4.226,0,0,1,1.036,1.665L870.1,637.069l13.719-27.485a4.433,4.433,0,0,1,1.081-1.665,4.515,4.515,0,0,1,7.242,5.174l-26.63,53.486a6.442,6.442,0,0,1-1.215,1.665,4.373,4.373,0,0,1-3.193,1.347,4.3,4.3,0,0,1-3.194-1.327,4.358,4.358,0,0,1-1.305-3.17,5.743,5.743,0,0,1,.585-2.608L865.06,647.1Z" transform="translate(-847.608 -606.615)"/>
      </g>
    </g>
    <g id="Group_299" data-name="Group 299" transform="translate(1327.831 222.5)">
      <g id="Group_298" data-name="Group 298">
        <path id="Path_144" data-name="Path 144" d="M1015.488,593.28a4.415,4.415,0,0,1,1.349,3.24v49.032a4.588,4.588,0,0,1-9.175,0V596.52a4.58,4.58,0,0,1,7.826-3.24" transform="translate(-1007.662 -591.932)"/>
      </g>
    </g>
    <g id="Group_301" data-name="Group 301" transform="translate(1345.869 235.815)">
      <g id="Group_300" data-name="Group 300">
        <path id="Path_145" data-name="Path 145" d="M1072.582,647.2q0,2.61-1.349,3.509a6.283,6.283,0,0,1-6.479,0q-1.348-.9-1.349-3.418a22.487,22.487,0,1,1,9.178-18.354Zm-13-27.485a13.292,13.292,0,1,0,3.822,11.022v-1.709a7.37,7.37,0,0,1,.046-.81,12.547,12.547,0,0,0-3.868-8.5" transform="translate(-1027.689 -606.715)"/>
      </g>
    </g>
    <path id="Path_146" data-name="Path 146" d="M979.642,613.741a22.345,22.345,0,0,0-38.142,15.8h-.019c0,.042,0,.082,0,.124a14.811,14.811,0,1,1-4.363-10.5l5.321-5.479a22.324,22.324,0,1,0,6.613,15.857h.019c0-.04,0-.081,0-.122a14.809,14.809,0,1,1,4.362,10.5l-5.323,5.478a22.339,22.339,0,0,0,31.531-31.654" transform="translate(330.428 -370.948)" fill="#fd1cc0"/>
  </g>
</svg>
